<?xml version="1.0" encoding="utf-8"?>
<!-- Generator: Adobe Illustrator 25.4.1, SVG Export Plug-In . SVG Version: 6.00 Build 0)  -->
<svg version="1.1" id="Layer_1" xmlns="http://www.w3.org/2000/svg" xmlns:xlink="http://www.w3.org/1999/xlink" x="0px" y="0px"
	 viewBox="0 0 4026.33 944.52" style="enable-background:new 0 0 4026.33 944.52;" xml:space="preserve">
<style type="text/css">
	.st0{fill-rule:evenodd;clip-rule:evenodd;}
	.st1{fill:none;}
</style>
<path class="st0" d="M1763.57,242.58c-23.07,104.62-24.81,244.65-24.97,376.44c-0.15,41.09,7.59,120.74-30.18,125.48
	c-45.04,6.01-35.4-42.04-35.09-75.22c0.79-128.66-2.06-289.52,15.01-411.54c-56.42-20.85-181.74,32.87-180.79-35.07
	c1.11-61.33,120.74-21.18,180.79-40.15c-6.63-69.85,78.07-75.54,75.22-5.05c187.74-11.37,361.57-63.52,506.96-100.19
	c99.88,67.33-154.24,113.47-210.66,125.16C1942.48,227.1,1852.08,236.57,1763.57,242.58"/>
<path class="st0" d="M117.33,604.17V448.66c26.23-92.62,75.54-196.59,40.3-306.27c97.04-34.77,417.52-132.12,421.47,45.2
	c1.26,58.46-65.27,111.25-100.51,145.38c-47.72,47.08-86.61,83.13-140.34,110.63c148.87,61.63,297.42-26.88,406.47-80.61
	c-27.34-268.96,318.92-314.17,476.95-185.52c18.34-1.59,20.07-19.91,45.04-15.18c70.65,18.34,79.17,93.24,70.32,175.74
	c-12.48,115.68-114.73,222.52-245.9,236.1c-128.96,13.28-303.27-25.61-331.4-145.7c-86.29,29.71-170.05,103.34-275.92,110.3
	c-102.25,6.96-196.76-55.93-296.32-70.17c-27.98,34.15,6.48,107.47-9.96,145.72C155.89,630.72,131.72,620.28,117.33,604.17
	 M237.76,192.64c7.1,82.19-15.17,135.28-30.02,195.64c129.74,14.23,166.09-64.79,241-105.24c5.21-50.26,74.12-62.58,55.15-120.75
	C416.97,135.13,304.13,166.1,237.76,192.64 M1196.4,237.84C1056.53,130.69,797.36,156.61,810,363
	c10.43,172.27,336.29,194.39,426.69,65.44c29.55-42.36,53.41-146.35,15.01-200.72C1226.89,224.56,1225.16,244.47,1196.4,237.84"/>
<path class="st0" d="M2506.49,137.33c23.07,43.31,9.8,122.64,5.05,180.79c31.62-1.27,66.38-23.39,85.35,5.06
	c8.69,58.78-45.52,54.68-80.44,70.16c1.57,82.18-3.17,159.62,10.11,225.67c8.21,41.09,41.23,75.85,20.07,110.63
	c-98.31,30.98-94.66-188.69-95.3-301.2c-57.99,22.75-145.23,58.78-225.99,75.22c-18.02,24.65-51.2,63.85-80.28,115.36
	c-28.77,51.52-54.37,165.31-110.46,90.4c12.47-82.81,65.26-125.48,95.45-190.59c-25.13-11.7-67.48-6.32-80.28-30.35
	c-2.23-17.07,1.9-28.14,5.05-39.82c32.71-18.02,78.07,11.37,125.33-5.05C2281.77,341.51,2287.28,72.22,2506.49,137.33
	 M2280.66,418.31c63.85-12.96,109.2-44.57,165.61-65.12c-3.3-60.04,8.7-105.24,5.06-165.61
	C2343.24,213.18,2332.96,336.78,2280.66,418.31"/>
<path class="st0" d="M3911.88,327.93v30.34h-4.9c-36.82,49.93-124.06,49.93-195.81,65.1c0.79,90.39,25.76,207.35,5.07,286.05
	c-106.53,24-39.83-197.55-75.39-270.88c-64.95,25.29-134.64,45.83-220.93,49.95c-17.54,35.08-40.14,62.27-60.06,110.62
	c-16.1,38.87-18.16,113.47-55.3,115.36c-73.96,4.11-8.37-147.29,10.11-175.73c-92.61,106.52-212.72,185.85-401.57,195.96
	c-4.11,44.26,42.67,83.12,4.9,115.37h-30.02c-28.45-26.88-39.35-71.12-45.2-120.43c-37.13-14.21-65.89-24.65-90.4-45.19
	c-138.58-116.32-62.41-302.8,10.12-411.53c30.82-46.13,58.79-105.56,100.35-95.45c36.97,55.64-29.56,107.14-60.21,155.51
	c-70.8,111.89-102.41,280.35,45.19,326.5c23.24-80.92,55.33-178.9,145.55-175.74c31.76,75.86-93.87,101.77-70.32,185.54
	c182.53-23.07,311-100.51,371.55-245.91h90.24c31.12-52.15,82.01-91.02,115.36-150.45c33.65-59.74,20.54-152.97,90.39-185.84
	c28.78,38.24,91.66,42.35,120.58,80.28V353.2C3795.1,367.43,3860.69,282.41,3911.88,327.93 M3600.71,187.59
	c-19.43,96.07-74.42,156.44-120.57,225.67c64.47-5.7,110.79-29.73,165.62-44.89V197.38
	C3632.79,192.02,3621.26,185.37,3600.71,187.59"/>
<rect x="3184.33" y="170.08" class="st1" width="842" height="595"/>
</svg>
